<?xml version="1.0" standalone="no"?>
<!DOCTYPE svg PUBLIC "-//W3C//DTD SVG 20010904//EN"
 "http://www.w3.org/TR/2001/REC-SVG-20010904/DTD/svg10.dtd">
<svg version="1.0" xmlns="http://www.w3.org/2000/svg"
 width="260.000000pt" height="260.000000pt" viewBox="0 0 260.000000 260.000000"
 preserveAspectRatio="xMidYMid meet">
<metadata>
Created by potrace 1.14, written by Peter Selinger 2001-2017
</metadata>
<g transform="translate(0.000000,260.000000) scale(0.100000,-0.100000)"
fill="#000000" stroke="none">
<path d="M1135 2590 c-279 -37 -546 -170 -751 -374 -184 -184 -288 -374 -356
-651 -18 -75 -22 -119 -22 -260 0 -107 4 -192 13 -230 66 -296 173 -498 366
-690 187 -187 369 -287 650 -357 77 -19 117 -22 275 -22 177 0 190 2 305 33
477 128 818 469 946 946 31 113 33 130 33 295 1 181 -7 234 -56 405 -44 155
-174 380 -290 501 -35 37 -39 44 -28 64 11 20 10 21 -9 10 -18 -9 -30 -3 -92
46 -279 222 -645 328 -984 284z"/>
</g>
</svg>
